<?xml version="1.0" encoding="utf-8"?>
<svg xmlns="http://www.w3.org/2000/svg" viewBox="21 21 470 470" width="512" height="512" style="width: 100%; height: 100%; transform: translate3d(0px, 0px, 0px);" preserveAspectRatio="xMidYMid meet">
  <defs>
    <clipPath id="__lottie_element_2">
      <rect width="512" height="512" x="0" y="0"/>
    </clipPath>
    <mask id="__lottie_element_3" mask-type="alpha">
      <g clip-path="url(#__lottie_element_4)" style="display: block;" transform="matrix(0.9599999785423279,0,0,0.9599999785423279,10.240005493164062,10.240005493164062)" opacity="1">
        <g style="display: block;" transform="matrix(1,0,0,1,10.75,10.75)" opacity="1">
          <g opacity="1" transform="matrix(1,0,0,1,245.25,245.25)">
            <path fill="rgb(255,255,255)" fill-opacity="1" d=" M0,245 C135.30999755859375,245 245,135.30999755859375 245,0 C245,-135.30999755859375 135.30999755859375,-245 0,-245 C-135.30999755859375,-245 -245,-135.30999755859375 -245,0 C-245,135.30999755859375 -135.30999755859375,245 0,245z"/>
          </g>
        </g>
        <g style="display: block;" transform="matrix(1,0,0,1,10.75,10.75)" opacity="1">
          <g opacity="1" transform="matrix(1,0,0,1,245.25,245.25)">
            <path fill="url(#__lottie_element_10)" fill-opacity="1" d=" M87.28299713134766,-61.25 C87.28299713134766,-61.25 237.28199768066406,-61.25 237.28199768066406,-61.25 C221.8699951171875,-121.125 184.39500427246094,-172.14199829101562 134.03900146484375,-205.11500549316406 C134.03900146484375,-205.11500549316406 87.28299713134766,-61.25 87.28299713134766,-61.25z M-245,0 C-245,135.30999755859375 -135.30999755859375,245 0,245 C135.3090057373047,245 245,135.30999755859375 245,0 C245,0 67.3759994506836,0 67.3759994506836,0 C67.3759994506836,0 19.601999282836914,147 19.601999282836914,147 C19.601999282836914,147 -47.77299880981445,147 -47.77299880981445,147 C-47.77299880981445,147 0.0010000000474974513,0 0.0010000000474974513,0 C0.0010000000474974513,0 -163.08799743652344,0 -163.08799743652344,0 C-163.08799743652344,0 -143.16099548339844,-61.25 -143.16099548339844,-61.25 C-143.16099548339844,-61.25 19.908000946044922,-61.25 19.908000946044922,-61.25 C19.908000946044922,-61.25 75.74800109863281,-233.06500244140625 75.74800109863281,-233.06500244140625 C51.89500045776367,-240.81300354003906 26.43600082397461,-245 0,-245 C-135.30999755859375,-245 -245,-135.3090057373047 -245,0z"/>
          </g>
        </g>
      </g>
    </mask>
    <clipPath id="__lottie_element_4">
      <path d="M0,0 L512,0 L512,512 L0,512z"/>
    </clipPath>
    <linearGradient id="__lottie_element_10" spreadMethod="pad" gradientUnits="userSpaceOnUse" x1="-244.16200256347656" y1="0" x2="246.9980010986328" y2="0">
      <stop offset="0" stop-color="rgb(255,92,77)"/>
      <stop offset="0.22" stop-color="rgb(245,81,118)"/>
      <stop offset="0.4" stop-color="rgb(235,70,159)"/>
      <stop offset="0.7" stop-color="rgb(183,68,199)"/>
      <stop offset="1" stop-color="rgb(131,65,239)"/>
    </linearGradient>
    <clipPath id="__lottie_element_18">
      <path d="M0,0 L512,0 L512,512 L0,512z"/>
    </clipPath>
    <linearGradient id="__lottie_element_24" spreadMethod="pad" gradientUnits="userSpaceOnUse" x1="-244.16200256347656" y1="0" x2="246.9980010986328" y2="0">
      <stop offset="0" stop-color="rgb(255,92,77)"/>
      <stop offset="0.22" stop-color="rgb(245,81,118)"/>
      <stop offset="0.4" stop-color="rgb(235,70,159)"/>
      <stop offset="0.7" stop-color="rgb(183,68,199)"/>
      <stop offset="1" stop-color="rgb(131,65,239)"/>
    </linearGradient>
  </defs>
  <g clip-path="url(#__lottie_element_2)">
    <g clip-path="url(#__lottie_element_18)" style="display: block;" transform="matrix(0.9599999785423279,0,0,0.9599999785423279,10.240005493164062,10.240005493164062)" opacity="1">
      <g style="display: block;" transform="matrix(1,0,0,1,10.75,10.75)" opacity="1">
        <g opacity="1" transform="matrix(1,0,0,1,245.25,245.25)">
          <path fill="rgb(255,255,255)" fill-opacity="1" d=" M0,245 C135.30999755859375,245 245,135.30999755859375 245,0 C245,-135.30999755859375 135.30999755859375,-245 0,-245 C-135.30999755859375,-245 -245,-135.30999755859375 -245,0 C-245,135.30999755859375 -135.30999755859375,245 0,245z"/>
        </g>
      </g>
      <g style="display: block;" transform="matrix(1,0,0,1,10.75,10.75)" opacity="1">
        <g opacity="1" transform="matrix(1,0,0,1,245.25,245.25)">
          <path fill="url(#__lottie_element_24)" fill-opacity="1" d=" M87.28299713134766,-61.25 C87.28299713134766,-61.25 237.28199768066406,-61.25 237.28199768066406,-61.25 C221.8699951171875,-121.125 184.39500427246094,-172.14199829101562 134.03900146484375,-205.11500549316406 C134.03900146484375,-205.11500549316406 87.28299713134766,-61.25 87.28299713134766,-61.25z M-245,0 C-245,135.30999755859375 -135.30999755859375,245 0,245 C135.3090057373047,245 245,135.30999755859375 245,0 C245,0 67.3759994506836,0 67.3759994506836,0 C67.3759994506836,0 19.601999282836914,147 19.601999282836914,147 C19.601999282836914,147 -47.77299880981445,147 -47.77299880981445,147 C-47.77299880981445,147 0.0010000000474974513,0 0.0010000000474974513,0 C0.0010000000474974513,0 -163.08799743652344,0 -163.08799743652344,0 C-163.08799743652344,0 -143.16099548339844,-61.25 -143.16099548339844,-61.25 C-143.16099548339844,-61.25 19.908000946044922,-61.25 19.908000946044922,-61.25 C19.908000946044922,-61.25 75.74800109863281,-233.06500244140625 75.74800109863281,-233.06500244140625 C51.89500045776367,-240.81300354003906 26.43600082397461,-245 0,-245 C-135.30999755859375,-245 -245,-135.3090057373047 -245,0z"/>
        </g>
      </g>
    </g>
    <g style="display: block;" mask="url(#__lottie_element_3)">
      <g transform="matrix(1,0,0,1,641.5750122070312,-104.072998046875)" opacity="1">
        <g opacity="1" transform="matrix(0.7071067690849304,-0.7071067690849304,0.7071067690849304,0.7071067690849304,-76.14099884033203,49.32400131225586)">
          <path fill="rgb(255,255,255)" fill-opacity="1" d=" M37.5,-400 C37.5,-400 37.5,400 37.5,400 C37.5,400 -37.5,400 -37.5,400 C-37.5,400 -37.5,-400 -37.5,-400 C-37.5,-400 37.5,-400 37.5,-400z"/>
        </g>
      </g>
    </g>
  </g>
</svg>