<?xml version="1.0" encoding="utf-8"?>
<svg width="24" height="24" fill="none" xmlns="http://www.w3.org/2000/svg" viewBox="0 0 24 24">
  <path d="M -0.027 11.999 C -0.027 5.371 5.345 0 11.973 0 C 18.599 0 23.973 5.371 23.973 11.999 C 23.973 18.628 18.599 24 11.973 24 C 5.345 24 -0.027 18.628 -0.027 11.999 Z" fill="#FC3F1D" style=""/>
  <path d="M 13.508 6.755 L 12.4 6.755 C 10.368 6.755 9.298 7.783 9.298 9.302 C 9.298 11.017 10.038 11.822 11.556 12.852 L 12.809 13.697 L 9.205 19.082 L 6.513 19.082 L 9.746 14.265 C 7.887 12.932 6.845 11.637 6.845 9.448 C 6.845 6.702 8.757 4.827 12.387 4.827 L 15.992 4.827 L 15.992 19.068 L 13.508 19.068 L 13.508 6.755 Z" fill="#fff" style=""/>
</svg>